<svg width="267" height="179" viewBox="0 0 267 179" fill="none" xmlns="http://www.w3.org/2000/svg">
<path d="M0 174V117.707C0 116.635 0.34484 115.59 0.983604 114.729L84.5516 2.02199C85.4947 0.750043 86.9846 0 88.568 0H262C264.761 0 267 2.23858 267 5.00001V102.797C267 104.905 265.678 106.786 263.695 107.501L66.1415 178.704C65.5977 178.9 65.0241 179 64.4461 179H5C2.23858 179 0 176.761 0 174Z" fill="black"/>
<path d="M96.808 50.42C94.456 50.42 92.286 50.042 90.298 49.286C88.338 48.53 86.63 47.48 85.174 46.136C83.746 44.764 82.64 43.14 81.856 41.264C81.072 39.388 80.68 37.33 80.68 35.09C80.68 32.85 81.072 30.792 81.856 28.916C82.668 27.04 83.802 25.43 85.258 24.086C86.714 22.714 88.436 21.65 90.424 20.894C92.44 20.138 94.652 19.76 97.06 19.76C98.432 19.76 99.776 19.928 101.092 20.264C102.436 20.572 103.696 21.062 104.872 21.734C106.076 22.378 107.168 23.204 108.148 24.212L102.73 30.554C102.338 30.078 101.862 29.644 101.302 29.252C100.77 28.86 100.14 28.552 99.412 28.328C98.712 28.076 97.9 27.95 96.976 27.95C96.024 27.95 95.114 28.118 94.246 28.454C93.406 28.762 92.664 29.224 92.02 29.84C91.404 30.456 90.914 31.212 90.55 32.108C90.186 33.004 90.004 34.04 90.004 35.216C90.004 36.28 90.186 37.246 90.55 38.114C90.914 38.982 91.432 39.724 92.104 40.34C92.776 40.956 93.588 41.432 94.54 41.768C95.492 42.104 96.556 42.272 97.732 42.272C98.572 42.272 99.37 42.146 100.126 41.894C100.882 41.642 101.568 41.32 102.184 40.928C102.8 40.508 103.332 40.046 103.78 39.542L108.106 46.346C107.378 47.13 106.412 47.83 105.208 48.446C104.004 49.062 102.674 49.552 101.218 49.916C99.762 50.252 98.292 50.42 96.808 50.42ZM126.169 50.42C123.845 50.42 121.717 50.042 119.785 49.286C117.853 48.53 116.173 47.466 114.745 46.094C113.317 44.722 112.211 43.098 111.427 41.222C110.671 39.346 110.293 37.302 110.293 35.09C110.293 32.85 110.671 30.806 111.427 28.958C112.211 27.082 113.317 25.458 114.745 24.086C116.173 22.714 117.853 21.65 119.785 20.894C121.717 20.138 123.831 19.76 126.127 19.76C128.451 19.76 130.565 20.138 132.469 20.894C134.401 21.65 136.081 22.714 137.509 24.086C138.937 25.458 140.029 27.082 140.785 28.958C141.569 30.806 141.961 32.836 141.961 35.048C141.961 37.288 141.569 39.346 140.785 41.222C140.029 43.098 138.937 44.722 137.509 46.094C136.081 47.466 134.401 48.53 132.469 49.286C130.565 50.042 128.465 50.42 126.169 50.42ZM126.127 42.02C127.079 42.02 127.947 41.852 128.731 41.516C129.543 41.18 130.243 40.704 130.831 40.088C131.447 39.444 131.909 38.702 132.217 37.862C132.553 37.022 132.721 36.098 132.721 35.09C132.721 34.082 132.553 33.158 132.217 32.318C131.909 31.478 131.447 30.75 130.831 30.134C130.243 29.49 129.543 29 128.731 28.664C127.947 28.328 127.079 28.16 126.127 28.16C125.175 28.16 124.293 28.328 123.481 28.664C122.697 29 121.997 29.49 121.381 30.134C120.793 30.75 120.331 31.478 119.995 32.318C119.687 33.158 119.533 34.082 119.533 35.09C119.533 36.098 119.687 37.022 119.995 37.862C120.331 38.702 120.793 39.444 121.381 40.088C121.997 40.704 122.697 41.18 123.481 41.516C124.293 41.852 125.175 42.02 126.127 42.02ZM147.001 50V20.6H155.107L168.631 39.29L166.699 38.702C166.559 37.582 166.433 36.602 166.321 35.762C166.237 34.922 166.153 34.152 166.069 33.452C166.013 32.724 165.957 32.01 165.901 31.31C165.873 30.61 165.859 29.84 165.859 29C165.859 28.16 165.859 27.18 165.859 26.06V20.6H174.595V50H166.405L151.495 29.42L154.897 30.428C155.037 31.464 155.149 32.374 155.233 33.158C155.345 33.914 155.429 34.614 155.485 35.258C155.541 35.902 155.583 36.546 155.611 37.19C155.667 37.806 155.695 38.506 155.695 39.29C155.723 40.046 155.737 40.942 155.737 41.978V50H147.001ZM181.331 50V20.6H190.403V50H181.331ZM185.657 39.668V32.528H200.903V39.668H185.657ZM185.657 28.328V20.6H202.457V28.328H185.657ZM92.65 103.42C90.438 103.42 88.478 103.182 86.77 102.706C85.09 102.202 83.606 101.502 82.318 100.606C81.058 99.71 79.924 98.66 78.916 97.456L84.166 91.576C85.566 93.368 87.022 94.558 88.534 95.146C90.074 95.706 91.516 95.986 92.86 95.986C93.392 95.986 93.868 95.944 94.288 95.86C94.708 95.748 95.03 95.58 95.254 95.356C95.478 95.132 95.59 94.824 95.59 94.432C95.59 94.068 95.464 93.76 95.212 93.508C94.988 93.256 94.68 93.046 94.288 92.878C93.896 92.682 93.462 92.528 92.986 92.416C92.538 92.276 92.09 92.164 91.642 92.08C91.222 91.996 90.844 91.912 90.508 91.828C88.828 91.436 87.358 90.96 86.098 90.4C84.838 89.84 83.788 89.168 82.948 88.384C82.108 87.6 81.478 86.704 81.058 85.696C80.666 84.688 80.47 83.554 80.47 82.294C80.47 80.866 80.792 79.564 81.436 78.388C82.108 77.212 82.99 76.204 84.082 75.364C85.202 74.524 86.462 73.88 87.862 73.432C89.29 72.984 90.76 72.76 92.272 72.76C94.484 72.76 96.332 72.97 97.816 73.39C99.3 73.782 100.546 74.356 101.554 75.112C102.562 75.868 103.43 76.75 104.158 77.758L98.866 82.84C98.25 82.252 97.606 81.776 96.934 81.412C96.262 81.02 95.562 80.74 94.834 80.572C94.134 80.376 93.434 80.278 92.734 80.278C92.09 80.278 91.544 80.334 91.096 80.446C90.648 80.53 90.298 80.684 90.046 80.908C89.794 81.104 89.668 81.384 89.668 81.748C89.668 82.112 89.822 82.42 90.13 82.672C90.466 82.896 90.872 83.092 91.348 83.26C91.852 83.428 92.342 83.568 92.818 83.68C93.322 83.764 93.742 83.834 94.078 83.89C95.618 84.17 97.032 84.562 98.32 85.066C99.608 85.542 100.728 86.158 101.68 86.914C102.66 87.642 103.402 88.566 103.906 89.686C104.438 90.778 104.704 92.08 104.704 93.592C104.704 95.748 104.158 97.554 103.066 99.01C102.002 100.466 100.56 101.572 98.74 102.328C96.92 103.056 94.89 103.42 92.65 103.42ZM131.82 107.62L120.48 91.912L126.822 87.376L138.036 102.958L131.82 107.62ZM123.42 103.42C121.124 103.42 119.01 103.042 117.078 102.286C115.146 101.53 113.466 100.466 112.038 99.094C110.61 97.722 109.504 96.098 108.72 94.222C107.964 92.346 107.586 90.302 107.586 88.09C107.586 85.85 107.964 83.806 108.72 81.958C109.504 80.082 110.61 78.458 112.038 77.086C113.466 75.714 115.146 74.65 117.078 73.894C119.01 73.138 121.124 72.76 123.42 72.76C125.744 72.76 127.858 73.138 129.762 73.894C131.694 74.65 133.374 75.714 134.802 77.086C136.23 78.458 137.322 80.082 138.078 81.958C138.862 83.806 139.254 85.85 139.254 88.09C139.254 90.302 138.862 92.346 138.078 94.222C137.322 96.098 136.23 97.722 134.802 99.094C133.374 100.466 131.694 101.53 129.762 102.286C127.858 103.042 125.744 103.42 123.42 103.42ZM123.42 95.02C124.372 95.02 125.24 94.852 126.024 94.516C126.836 94.18 127.536 93.704 128.124 93.088C128.74 92.444 129.202 91.702 129.51 90.862C129.846 90.022 130.014 89.098 130.014 88.09C130.014 87.082 129.846 86.158 129.51 85.318C129.202 84.478 128.74 83.75 128.124 83.134C127.536 82.49 126.836 82 126.024 81.664C125.24 81.328 124.372 81.16 123.42 81.16C122.468 81.16 121.586 81.328 120.774 81.664C119.99 82 119.29 82.49 118.674 83.134C118.086 83.75 117.624 84.478 117.288 85.318C116.98 86.158 116.826 87.082 116.826 88.09C116.826 89.098 116.98 90.022 117.288 90.862C117.624 91.702 118.086 92.444 118.674 93.088C119.29 93.704 119.99 94.18 120.774 94.516C121.586 94.852 122.468 95.02 123.42 95.02ZM157.398 103.252C154.85 103.252 152.582 102.762 150.594 101.782C148.634 100.774 147.094 99.402 145.974 97.666C144.854 95.93 144.294 93.942 144.294 91.702V73.6H153.45V91.324C153.45 92.136 153.618 92.864 153.954 93.508C154.29 94.124 154.752 94.614 155.34 94.978C155.956 95.342 156.642 95.524 157.398 95.524C158.21 95.524 158.924 95.342 159.54 94.978C160.156 94.614 160.646 94.124 161.01 93.508C161.374 92.864 161.556 92.136 161.556 91.324V73.6H170.502V91.702C170.502 93.942 169.942 95.93 168.822 97.666C167.702 99.402 166.148 100.774 164.16 101.782C162.2 102.762 159.946 103.252 157.398 103.252ZM172.209 103L184.011 73.6H191.151L202.869 103H193.881L189.177 90.148C188.869 89.28 188.603 88.538 188.379 87.922C188.155 87.306 187.959 86.732 187.791 86.2C187.623 85.64 187.455 85.052 187.287 84.436C187.119 83.792 186.951 83.036 186.783 82.168H188.211C188.043 83.036 187.875 83.792 187.707 84.436C187.539 85.052 187.357 85.64 187.161 86.2C186.993 86.732 186.783 87.306 186.531 87.922C186.307 88.538 186.041 89.28 185.733 90.148L181.029 103H172.209ZM178.089 98.632L180.735 92.458H194.385L196.779 98.632H178.089ZM205.407 103V73.6H219.183C221.227 73.6 223.047 74.006 224.643 74.818C226.239 75.63 227.485 76.736 228.381 78.136C229.277 79.536 229.725 81.146 229.725 82.966C229.725 85.01 229.277 86.802 228.381 88.342C227.485 89.882 226.239 91.086 224.643 91.954C223.047 92.794 221.227 93.214 219.183 93.214H213.891V103H205.407ZM220.821 103L213.345 89.728L222.627 88.678L230.943 103H220.821ZM213.891 86.914H217.755C218.455 86.914 219.029 86.788 219.477 86.536C219.953 86.256 220.303 85.878 220.527 85.402C220.779 84.926 220.905 84.352 220.905 83.68C220.905 83.064 220.779 82.546 220.527 82.126C220.303 81.678 219.939 81.342 219.435 81.118C218.959 80.866 218.343 80.74 217.587 80.74H213.891V86.914ZM235.102 103V73.6H257.068V80.95H243.796V95.65H257.824V103H235.102ZM239.428 91.576V84.688H255.514V91.576H239.428Z" fill="white"/>
<g clip-path="url(#clip0_929_694)">
<path d="M226.607 17.9797C226.298 18.288 226.044 18.6363 225.842 19.0188C225.705 19.2771 223.416 24.9367 223.416 24.9367C221.663 29.2212 219.114 33.0533 215.84 36.3267L214.241 37.926C210.91 41.2573 210.866 46.6493 214.143 49.9457C215.742 51.5537 217.87 52.4391 220.136 52.4391C220.138 52.4391 220.14 52.4391 220.143 52.4391C221.398 52.4391 222.611 52.1662 223.716 51.6499L226.685 54.6189C226.842 54.7764 227.049 54.8551 227.255 54.8551C227.445 54.8551 227.634 54.7878 227.785 54.655L231.966 58.8356C232.742 59.6118 233.762 60 234.782 60C235.801 60 236.821 59.6118 237.597 58.8356C239.15 57.2831 239.15 54.757 237.597 53.2045L233.419 49.0259L233.983 48.461C234.135 48.3098 234.22 48.1047 234.22 47.8908C234.22 47.677 234.135 47.4719 233.983 47.3207L231.632 44.9697C233.952 43.2435 236.479 41.8165 239.188 40.7081C239.188 40.7081 244.832 38.4373 245.279 38.1878C245.747 37.9263 246.145 37.5179 246.145 37.5179C249.201 34.6695 247.122 27.9584 241.644 22.4805C236.166 17.0024 229.561 15.0254 226.607 17.9797ZM225.146 50.7993C225.487 50.5475 225.812 50.2687 226.118 49.9632L227.797 48.2837C228.052 48.0287 228.312 47.7798 228.574 47.5336L230.602 49.5618L227.255 52.9084L225.146 50.7993ZM233.106 57.6953L228.928 53.5166L230.516 51.9284L234.695 56.1075C235.142 56.5549 235.389 57.1497 235.389 57.7824C235.389 57.7842 235.389 57.786 235.389 57.7879C235.388 58.1244 235.102 58.3877 234.765 58.3859C234.164 58.3825 233.564 58.1531 233.106 57.6953ZM236.457 54.3449C237.178 55.0665 237.334 56.1406 236.928 57.0169C236.778 56.2451 236.403 55.5353 235.835 54.9672L231.656 50.7881L232.278 50.1663L236.457 54.3449ZM232.273 47.8908L231.742 48.4215L229.775 46.454C229.966 46.2905 230.157 46.1284 230.351 45.9693L232.273 47.8908ZM238.577 39.2155C234.093 41.0505 230.083 43.7178 226.657 47.1434L224.978 48.8229C223.685 50.115 221.969 50.8264 220.142 50.8264C220.14 50.8264 220.138 50.8264 220.136 50.8264C218.303 50.8264 216.581 50.1098 215.287 48.8086C212.635 46.141 212.677 41.7707 215.381 39.0664L216.981 37.4671C220.406 34.0415 223.074 30.0312 224.908 25.5476L225.543 23.9972C226.252 26.8395 228.179 30.0894 231.107 33.0172C233.653 35.5628 236.566 37.4541 239.31 38.3427C239.588 38.4329 239.862 38.5116 240.131 38.5793L238.577 39.2155ZM232.253 26.7981C232.265 26.8395 232.277 26.8806 232.29 26.9224C232.616 27.9279 233.301 28.9872 234.219 29.9055C235.222 30.9082 236.318 31.5786 237.324 31.8729L234.97 34.2267C234.037 33.5377 233.121 32.7495 232.248 31.8767C231.375 31.0038 230.587 30.0877 229.897 29.1537L232.253 26.7981ZM238.912 30.2851L238.912 30.285L238.91 30.2868C238.503 30.6884 236.882 30.2878 235.359 28.7652C234.629 28.0347 234.069 27.1818 233.824 26.4256C233.644 25.8674 233.649 25.4026 233.84 25.2125C233.937 25.1148 234.107 25.0657 234.326 25.0657C234.532 25.0657 234.781 25.1096 235.053 25.1975C235.809 25.4424 236.662 26.0019 237.392 26.7324C238.917 28.2571 239.317 29.8805 238.912 30.2851ZM245.005 36.3776C244.819 36.5636 244.731 36.6441 244.415 36.8181C244.1 36.9922 243.788 37.0823 243.788 37.0823C242.748 37.401 241.369 37.3144 239.807 36.8084C238.669 36.4398 237.494 35.8755 236.328 35.1493L240.05 31.4277C240.051 31.4269 240.052 31.4262 240.053 31.4254C241.282 30.1958 240.629 27.688 238.533 25.592C237.614 24.6737 236.555 23.9888 235.549 23.6631C234.36 23.278 233.348 23.4233 232.699 24.0721L232.699 24.0717L228.975 27.7955C228.249 26.6302 227.685 25.4556 227.316 24.3177C226.809 22.7525 226.723 21.372 227.044 20.3307C227.044 20.3307 227.148 19.9836 227.274 19.7685C227.399 19.5534 227.56 19.3071 227.747 19.1199C228.362 18.5044 229.251 18.2142 230.312 18.2142C233.11 18.2142 237.113 20.2301 240.504 23.6206C245.181 28.2981 247.242 34.14 245.005 36.3776Z" fill="white"/>
<path d="M256.617 26.9841H249.241C248.796 26.9841 248.435 27.3452 248.435 27.7905C248.435 28.2358 248.796 28.5968 249.241 28.5968H256.617C257.062 28.5968 257.423 28.2358 257.423 27.7905C257.423 27.3452 257.062 26.9841 256.617 26.9841Z" fill="white"/>
<path d="M245.883 23.6318C246.019 23.9252 246.31 24.0976 246.614 24.0976C246.728 24.0976 246.844 24.0732 246.954 24.0218L255.116 20.2157C255.519 20.0275 255.694 19.5478 255.506 19.1442C255.317 18.7405 254.838 18.566 254.434 18.7542L246.273 22.5602C245.869 22.7485 245.694 23.2282 245.883 23.6318Z" fill="white"/>
<path d="M243.019 20.5726C243.17 20.6994 243.354 20.7613 243.537 20.7613C243.767 20.7613 243.996 20.6633 244.155 20.4733L250.213 13.2537C250.5 12.9125 250.455 12.4039 250.114 12.1177C249.773 11.8314 249.264 11.8759 248.978 12.217L242.92 19.4366C242.633 19.7777 242.678 20.2863 243.019 20.5726Z" fill="white"/>
<path d="M239.598 17.9609C239.668 17.9796 239.738 17.9886 239.807 17.9886C240.163 17.9886 240.489 17.751 240.586 17.3907L242.829 9.0153C242.945 8.58514 242.689 8.14293 242.259 8.02768C241.829 7.91242 241.387 8.16766 241.271 8.59793L239.028 16.9733C238.912 17.4036 239.168 17.8457 239.598 17.9609Z" fill="white"/>
</g>
<defs>
<clipPath id="clip0_929_694">
<rect width="52" height="52" fill="white" transform="translate(208 8)"/>
</clipPath>
</defs>
</svg>
